<?xml version="1.0" encoding="UTF-8"?>
<svg xmlns="http://www.w3.org/2000/svg" xmlns:xlink="http://www.w3.org/1999/xlink" viewBox="0 0 150 150" width="150px" height="150px">
<g id="surface1993284">
<path style=" stroke:none;fill-rule:nonzero;fill:rgb(11.764706%,17.647059%,23.921569%);fill-opacity:1;" d="M 9 12 C 4.066406 12 0 16.066406 0 21 L 0 131.71875 C -0.1875 132.410156 -0.117188 133.136719 0.1875 133.78125 C 1.03125 137.871094 4.6875 141 9 141 L 126 141 C 130.476562 141 134.15625 137.625 134.8125 133.3125 C 134.835938 133.125 134.894531 132.9375 134.90625 132.75 C 134.90625 132.691406 134.90625 132.621094 134.90625 132.5625 L 135 132.09375 C 135 132.058594 135 132.035156 135 132 L 149.90625 51.5625 L 150 51.28125 L 150 51 C 150 46.066406 145.933594 42 141 42 L 141 33 C 141 28.066406 136.933594 24 132 24 L 54.09375 24 C 54.105469 24.011719 54.070312 24 54 24 C 53.90625 23.929688 53.636719 23.707031 53.15625 23.15625 C 52.417969 22.3125 51.5625 20.90625 50.625 19.40625 C 49.6875 17.90625 48.679688 16.3125 47.4375 14.90625 C 46.195312 13.5 44.460938 12 42 12 Z M 9 18 L 42 18 C 41.8125 18 42.199219 18 42.9375 18.84375 C 43.675781 19.6875 44.53125 21.09375 45.46875 22.59375 C 46.40625 24.09375 47.4375 25.6875 48.65625 27.09375 C 49.875 28.5 51.539062 30 54 30 L 132 30 C 133.6875 30 135 31.3125 135 33 L 135 42 L 24 42 C 19.277344 42 15.515625 45.796875 15.1875 50.4375 L 15.09375 50.4375 L 15 51 L 6 99.5625 L 6 21 C 6 19.3125 7.3125 18 9 18 Z M 24 48 L 141 48 C 142.6875 48 144 49.3125 144 51 L 129.28125 130.59375 L 129.1875 130.78125 C 129.152344 130.898438 129.117188 131.027344 129.09375 131.15625 C 129.058594 131.273438 129.023438 131.402344 129 131.53125 C 129 131.589844 129 131.660156 129 131.71875 C 129 131.753906 129 131.777344 129 131.8125 C 128.953125 131.964844 128.929688 132.117188 128.90625 132.28125 C 128.894531 132.375 128.917969 132.46875 128.90625 132.5625 C 128.894531 132.691406 128.894531 132.808594 128.90625 132.9375 C 128.53125 134.15625 127.371094 135 126 135 L 9 135 C 7.3125 135 6 133.6875 6 132 L 20.90625 51.5625 L 21 51.28125 L 21 51 C 21 49.3125 22.3125 48 24 48 Z M 24 48 "/>
</g>
</svg>
