<?xml version="1.0" encoding="UTF-8"?>
<svg xmlns="http://www.w3.org/2000/svg" xmlns:xlink="http://www.w3.org/1999/xlink" viewBox="0 0 20 20" width="20px" height="20px">
<g id="surface23397503">
<path style=" stroke:none;fill-rule:nonzero;fill:rgb(37.64706%,48.235294%,58.823532%);fill-opacity:1;" d="M 17.75 2.394531 C 17.554688 2.402344 17.367188 2.457031 17.195312 2.527344 C 17.027344 2.59375 16.050781 3.007812 14.613281 3.625 C 13.171875 4.242188 11.304688 5.042969 9.449219 5.835938 C 5.738281 7.425781 2.09375 8.988281 2.09375 8.988281 L 2.121094 8.976562 C 2.121094 8.976562 1.902344 9.050781 1.679688 9.207031 C 1.566406 9.285156 1.449219 9.386719 1.347656 9.53125 C 1.25 9.675781 1.179688 9.882812 1.207031 10.105469 C 1.300781 10.875 2.097656 11.09375 2.097656 11.09375 L 2.101562 11.09375 L 5.664062 12.3125 C 5.753906 12.617188 6.742188 15.917969 6.960938 16.617188 C 7.082031 17.003906 7.195312 17.226562 7.3125 17.378906 C 7.371094 17.453125 7.429688 17.511719 7.5 17.554688 C 7.527344 17.574219 7.554688 17.585938 7.582031 17.597656 C 7.582031 17.597656 7.582031 17.597656 7.585938 17.597656 C 7.585938 17.597656 7.589844 17.597656 7.59375 17.601562 L 7.585938 17.597656 C 7.589844 17.601562 7.597656 17.605469 7.605469 17.609375 C 7.617188 17.613281 7.625 17.613281 7.640625 17.617188 C 8.050781 17.757812 8.386719 17.492188 8.386719 17.492188 L 8.402344 17.484375 L 10.589844 15.453125 L 14.136719 18.222656 L 14.183594 18.242188 C 14.804688 18.519531 15.367188 18.363281 15.675781 18.109375 C 15.988281 17.859375 16.109375 17.53125 16.109375 17.53125 L 16.125 17.496094 L 18.734375 3.902344 C 18.800781 3.597656 18.808594 3.332031 18.746094 3.097656 C 18.683594 2.859375 18.53125 2.652344 18.339844 2.539062 C 18.144531 2.421875 17.945312 2.386719 17.75 2.394531 Z M 17.773438 3.207031 C 17.851562 3.203125 17.910156 3.214844 17.929688 3.222656 C 17.945312 3.234375 17.953125 3.234375 17.972656 3.300781 C 17.992188 3.367188 18 3.507812 17.953125 3.730469 L 17.949219 3.734375 L 15.355469 17.25 C 15.351562 17.265625 15.296875 17.390625 15.171875 17.492188 C 15.046875 17.59375 14.90625 17.671875 14.535156 17.515625 L 10.652344 14.488281 L 10.542969 14.402344 L 10.542969 14.40625 L 9.378906 13.535156 L 15.90625 5.859375 C 16.007812 5.738281 16.027344 5.570312 15.960938 5.425781 C 15.894531 5.285156 15.746094 5.195312 15.589844 5.199219 C 15.515625 5.203125 15.441406 5.226562 15.378906 5.265625 L 5.9375 11.5625 L 2.371094 10.339844 C 2.371094 10.339844 2.015625 10.144531 2 10.003906 C 2 9.996094 1.996094 10.003906 2.011719 9.976562 C 2.03125 9.949219 2.078125 9.902344 2.136719 9.863281 C 2.25 9.78125 2.382812 9.734375 2.382812 9.734375 L 2.398438 9.730469 L 2.410156 9.722656 C 2.410156 9.722656 6.054688 8.160156 9.765625 6.570312 C 11.617188 5.777344 13.488281 4.976562 14.925781 4.359375 C 16.367188 3.746094 17.40625 3.304688 17.492188 3.269531 C 17.59375 3.226562 17.691406 3.210938 17.773438 3.207031 Z M 13.445312 7.515625 L 8.496094 13.339844 C 8.488281 13.351562 8.480469 13.359375 8.472656 13.371094 C 8.464844 13.378906 8.457031 13.390625 8.453125 13.402344 C 8.421875 13.449219 8.40625 13.503906 8.398438 13.558594 L 7.753906 16.457031 C 7.742188 16.425781 7.738281 16.414062 7.726562 16.378906 C 7.519531 15.71875 6.585938 12.605469 6.457031 12.175781 Z M 9.054688 14.292969 L 9.945312 14.960938 L 8.640625 16.171875 Z M 9.054688 14.292969 "/>
</g>
</svg>
