<?xml version="1.0" encoding="UTF-8"?>
<svg xmlns="http://www.w3.org/2000/svg" xmlns:xlink="http://www.w3.org/1999/xlink" viewBox="0 0 20 20" width="20px" height="20px">
<g id="surface23390617">
<path style=" stroke:none;fill-rule:nonzero;fill:rgb(37.64706%,48.235294%,58.823532%);fill-opacity:1;" d="M 10 2 C 5.582031 2 2 5.582031 2 10 C 2 14.417969 5.582031 18 10 18 C 14.417969 18 18 14.417969 18 10 C 18 5.582031 14.417969 2 10 2 Z M 14.242188 12.644531 L 12.996094 12.660156 C 12.996094 12.660156 12.726562 12.714844 12.375 12.472656 C 11.910156 12.152344 11.46875 11.320312 11.128906 11.425781 C 10.78125 11.539062 10.789062 12.289062 10.789062 12.289062 C 10.789062 12.289062 10.792969 12.417969 10.714844 12.503906 C 10.628906 12.597656 10.460938 12.589844 10.460938 12.589844 L 9.902344 12.589844 C 9.902344 12.589844 8.671875 12.691406 7.585938 11.558594 C 6.40625 10.328125 5.359375 7.894531 5.359375 7.894531 C 5.359375 7.894531 5.300781 7.742188 5.363281 7.664062 C 5.4375 7.574219 5.636719 7.574219 5.636719 7.574219 L 6.972656 7.566406 C 6.972656 7.566406 7.097656 7.589844 7.1875 7.65625 C 7.261719 7.710938 7.304688 7.8125 7.304688 7.8125 C 7.304688 7.8125 7.519531 8.359375 7.804688 8.851562 C 8.363281 9.816406 8.621094 10.027344 8.808594 9.925781 C 9.085938 9.773438 9.003906 8.5625 9.003906 8.5625 C 9.003906 8.5625 9.007812 8.121094 8.863281 7.925781 C 8.753906 7.773438 8.542969 7.730469 8.449219 7.71875 C 8.375 7.707031 8.496094 7.53125 8.65625 7.453125 C 8.898438 7.335938 9.320312 7.328125 9.820312 7.335938 C 10.210938 7.339844 10.324219 7.363281 10.476562 7.398438 C 10.9375 7.511719 10.78125 7.941406 10.78125 8.96875 C 10.78125 9.300781 10.722656 9.765625 10.957031 9.917969 C 11.0625 9.984375 11.3125 9.925781 11.933594 8.863281 C 12.230469 8.359375 12.453125 7.769531 12.453125 7.769531 C 12.453125 7.769531 12.503906 7.664062 12.578125 7.617188 C 12.65625 7.570312 12.757812 7.585938 12.757812 7.585938 L 14.160156 7.578125 C 14.160156 7.578125 14.582031 7.527344 14.652344 7.71875 C 14.722656 7.917969 14.496094 8.386719 13.921875 9.148438 C 12.980469 10.40625 12.875 10.289062 13.65625 11.015625 C 14.402344 11.710938 14.558594 12.046875 14.585938 12.089844 C 14.894531 12.605469 14.242188 12.644531 14.242188 12.644531 Z M 14.242188 12.644531 "/>
</g>
</svg>
