<?xml version="1.0" encoding="UTF-8"?>
<svg xmlns="http://www.w3.org/2000/svg" xmlns:xlink="http://www.w3.org/1999/xlink" viewBox="0 0 18 18" width="18px" height="18px">
<g id="surface33138437">
<path style=" stroke:none;fill-rule:nonzero;fill:rgb(0.392157%,7.058824%,12.941177%);fill-opacity:1;" d="M 9 1.5 C 4.863281 1.5 1.5 4.863281 1.5 9 C 1.5 13.136719 4.863281 16.5 9 16.5 C 13.136719 16.5 16.5 13.136719 16.5 9 C 16.5 4.863281 13.136719 1.5 9 1.5 Z M 9 2.625 C 10.507812 2.625 11.890625 3.148438 12.980469 4.023438 C 12.652344 4.253906 12.425781 4.691406 12.425781 5.113281 C 12.425781 5.675781 12.742188 6.171875 13.097656 6.738281 C 13.378906 7.195312 13.660156 7.796875 13.660156 8.644531 C 13.660156 9.246094 13.484375 9.988281 13.128906 10.90625 L 12.425781 13.238281 L 9.914062 5.746094 C 10.339844 5.710938 10.730469 5.679688 10.730469 5.679688 C 11.082031 5.640625 11.046875 5.113281 10.695312 5.113281 L 10.65625 5.113281 C 10.65625 5.113281 9.527344 5.21875 8.785156 5.21875 C 8.113281 5.21875 6.949219 5.113281 6.949219 5.113281 L 6.914062 5.113281 C 6.558594 5.113281 6.523438 5.679688 6.878906 5.679688 C 6.878906 5.679688 7.230469 5.710938 7.621094 5.75 L 8.714844 8.714844 L 7.195312 13.273438 L 4.652344 5.714844 C 5.078125 5.675781 5.464844 5.644531 5.464844 5.644531 C 5.816406 5.605469 5.78125 5.078125 5.429688 5.078125 L 5.394531 5.078125 C 5.394531 5.078125 4.578125 5.160156 3.898438 5.183594 C 5.058594 3.632812 6.90625 2.625 9 2.625 Z M 15.023438 6.925781 C 15.246094 7.578125 15.375 8.273438 15.375 9 C 15.375 11.167969 14.292969 13.078125 12.644531 14.230469 L 14.507812 8.824219 C 14.777344 8.148438 14.953125 7.464844 15.023438 6.925781 Z M 2.894531 7.164062 L 5.527344 14.34375 C 3.78125 13.207031 2.625 11.242188 2.625 9 C 2.625 8.359375 2.722656 7.746094 2.894531 7.164062 Z M 8.996094 9.601562 L 11 15.050781 C 10.371094 15.257812 9.699219 15.375 9 15.375 C 8.347656 15.375 7.71875 15.277344 7.125 15.09375 Z M 8.996094 9.601562 "/>
</g>
</svg>
