<svg width="19" height="17" viewBox="0 0 19 17" fill="none" xmlns="http://www.w3.org/2000/svg">
<path d="M9.65323 9.97326C9.31439 9.97326 8.98942 9.83866 8.74982 9.59906C8.51022 9.35946 8.37562 9.0345 8.37562 8.69565C8.37562 8.35681 8.51022 8.03184 8.74982 7.79225C8.98942 7.55265 9.31439 7.41804 9.65323 7.41804C9.99207 7.41804 10.317 7.55265 10.5566 7.79225C10.7962 8.03184 10.9308 8.35681 10.9308 8.69565C10.9308 9.0345 10.7962 9.35946 10.5566 9.59906C10.317 9.83866 9.99207 9.97326 9.65323 9.97326ZM9.20351 12.5234C9.35257 12.7022 9.50247 12.876 9.65323 13.0421C9.80399 12.876 9.95389 12.7031 10.1029 12.5234C9.80317 12.5297 9.50329 12.5297 9.20351 12.5234ZM7.50429 12.4169C6.85021 12.3488 6.20045 12.2442 5.55806 12.1035C5.49418 12.4016 5.44563 12.6912 5.41327 12.9688C5.25144 14.3171 5.47715 15.1365 5.8204 15.3341C6.16365 15.5326 6.98558 15.3179 8.07325 14.5045C8.29726 14.3367 8.52297 14.1502 8.74953 13.9466C8.3062 13.4604 7.89047 12.9497 7.50429 12.4169ZM13.7484 12.1035C13.1377 12.2397 12.4853 12.3454 11.8022 12.4169C11.416 12.9497 11.0003 13.4604 10.5569 13.9466C10.7835 14.151 11.0092 14.3367 11.2332 14.5045C12.3209 15.3179 13.1428 15.5326 13.4861 15.3341C13.8293 15.1365 14.0542 14.3171 13.894 12.9688C13.8589 12.6783 13.8106 12.3896 13.7492 12.1035H13.7484ZM14.9834 11.7738C15.4749 14.0216 15.2168 15.8111 14.1249 16.4414C13.0329 17.0717 11.3542 16.4005 9.65323 14.8512C7.95231 16.4005 6.27353 17.0708 5.1816 16.4405C4.08966 15.8102 3.83159 14.0216 4.32219 11.773C2.12981 11.0754 0.709961 9.95623 0.709961 8.69565C0.709961 7.43508 2.12981 6.31674 4.32219 5.61746C3.83159 3.36972 4.08966 1.58022 5.1816 0.949929C6.27353 0.319641 7.95231 0.990812 9.65323 2.54013C11.3542 0.990812 13.0329 0.320493 14.1249 0.950781C15.2168 1.58107 15.4749 3.36972 14.9843 5.61832C17.1766 6.31589 18.5965 7.43508 18.5965 8.69565C18.5965 9.95623 17.1766 11.0746 14.9843 11.7738H14.9834ZM8.74868 3.44468C8.53208 3.24861 8.3067 3.06246 8.07325 2.88679C6.98558 2.07337 6.16365 1.85874 5.8204 2.05719C5.47715 2.25479 5.25229 3.07417 5.41242 4.42247C5.44649 4.70099 5.49418 4.98973 5.55721 5.28784C6.19987 5.14708 6.84992 5.04243 7.50429 4.9744C7.90887 4.41821 8.32622 3.90632 8.74953 3.44468H8.74868ZM11.8022 4.9744C12.4853 5.04595 13.1377 5.15241 13.7484 5.28784C13.8123 4.98973 13.8608 4.70014 13.8932 4.42247C14.055 3.07417 13.8293 2.25479 13.4861 2.05719C13.1428 1.85874 12.3209 2.07337 11.2332 2.88679C10.9995 3.06244 10.7738 3.24859 10.5569 3.44468C10.9802 3.90632 11.3976 4.41821 11.8022 4.9744ZM10.1029 4.86793C9.95389 4.68907 9.80399 4.51531 9.65323 4.34922C9.50247 4.51531 9.35257 4.68822 9.20351 4.86793C9.50329 4.86157 9.80317 4.86157 10.1029 4.86793ZM6.56312 10.9988C6.40772 10.7425 6.25778 10.4829 6.1134 10.2203C6.03248 10.4392 5.95753 10.6547 5.88939 10.8684C6.10829 10.9161 6.33315 10.9596 6.56227 10.9988H6.56312ZM8.20868 11.1981C9.17039 11.2695 10.1361 11.2695 11.0978 11.1981C11.6405 10.4008 12.1234 9.56436 12.5423 8.69565C12.1234 7.82694 11.6405 6.99051 11.0978 6.19324C10.1361 6.12181 9.17039 6.12181 8.20868 6.19324C7.66595 6.99051 7.1831 7.82694 6.76413 8.69565C7.1831 9.56436 7.66595 10.4008 8.20868 11.1981ZM13.1931 7.17104C13.274 6.95214 13.3489 6.73665 13.4171 6.52286C13.1938 6.47441 12.9694 6.43096 12.7442 6.39255C12.8993 6.64884 13.049 6.9084 13.1931 7.17104ZM4.65352 6.85334C4.36393 6.94703 4.08966 7.04924 3.83244 7.15996C2.58464 7.69486 1.98757 8.29959 1.98757 8.69565C1.98757 9.09171 2.58379 9.69645 3.83244 10.2313C4.08966 10.3421 4.36393 10.4443 4.65352 10.538C4.8426 9.94175 5.07683 9.32339 5.3562 8.69565C5.08775 8.09515 4.85316 7.48008 4.65352 6.85334ZM5.88854 6.52286C5.95753 6.7358 6.03248 6.95214 6.1134 7.17019C6.25779 6.90782 6.40773 6.64855 6.56312 6.39255C6.33315 6.43173 6.10829 6.47517 5.88939 6.52286H5.88854ZM14.6529 10.538C14.9425 10.4443 15.2168 10.3421 15.474 10.2313C16.7218 9.69645 17.3189 9.09171 17.3189 8.69565C17.3189 8.29959 16.7227 7.69486 15.474 7.15996C15.2051 7.04541 14.9311 6.94309 14.6529 6.85334C14.4639 7.44956 14.2296 8.06792 13.9503 8.69565C14.2296 9.32339 14.4639 9.9409 14.6529 10.538ZM13.4179 10.8684C13.3489 10.6555 13.274 10.4392 13.1931 10.2211C13.0487 10.4835 12.8987 10.7428 12.7433 10.9988C12.9733 10.9596 13.1982 10.9161 13.4171 10.8684H13.4179Z" fill="#011221"/>
</svg>
